<svg width="88" height="88" viewBox="0 0 88 88" fill="none" xmlns="http://www.w3.org/2000/svg">
<mask id="path-1-inside-1_530_1471" fill="white">
<path d="M33 66L55 44L33 22"/>
</mask>
<path d="M30.1716 63.1716C28.6095 64.7337 28.6095 67.2663 30.1716 68.8284C31.7337 70.3905 34.2663 70.3905 35.8284 68.8284L30.1716 63.1716ZM55 44L57.8284 46.8284C59.3905 45.2663 59.3905 42.7337 57.8284 41.1716L55 44ZM35.8284 19.1716C34.2663 17.6095 31.7337 17.6095 30.1716 19.1716C28.6095 20.7337 28.6095 23.2663 30.1716 24.8284L35.8284 19.1716ZM35.8284 68.8284L57.8284 46.8284L52.1716 41.1716L30.1716 63.1716L35.8284 68.8284ZM57.8284 41.1716L35.8284 19.1716L30.1716 24.8284L52.1716 46.8284L57.8284 41.1716Z" fill="#111111" mask="url(#path-1-inside-1_530_1471)"/>
</svg>
